<svg width="150" height="150" viewBox="0 0 150 150" fill="none" xmlns="http://www.w3.org/2000/svg">
<path fill-rule="evenodd" clip-rule="evenodd" d="M62.5323 17.8887C63.2042 20.3962 61.7162 22.9737 59.2086 23.6456C56.701 24.3175 54.1236 22.8294 53.4517 20.3218C52.7798 17.8143 54.2679 15.2368 56.7754 14.5649C59.283 13.893 61.8605 15.3811 62.5323 17.8887ZM64.9961 27.1982C63.8103 28.2259 62.3791 29.0077 60.7615 29.4411C59.1439 29.8746 57.5135 29.9132 55.9726 29.6159L51.4154 51.886L80.0778 44.2059L64.9961 27.1982ZM47.6561 21.8747C48.1635 23.7683 49.1482 25.4065 50.4461 26.6945L44.9358 53.6222L26.4889 58.565C18.4869 60.7091 13.7381 68.9342 15.8823 76.9362L29.1658 126.511C31.31 134.513 39.535 139.262 47.537 137.118L126.052 116.08C134.054 113.935 138.803 105.71 136.659 97.7084L123.375 48.1335C121.231 40.1315 113.006 35.3827 105.004 37.5269L86.5574 42.4697L68.3216 21.905C68.8016 20.1405 68.8353 18.2294 68.3279 16.3358C66.7984 10.6274 60.9309 7.23982 55.2225 8.76937C49.5142 10.2989 46.1266 16.1664 47.6561 21.8747ZM89.7392 98.5624C87.5022 101.248 84.443 103.292 80.8106 104.266C71.4531 106.773 61.8346 101.22 59.3273 91.8622C58.354 88.2298 58.5953 84.5581 59.8022 81.2783L89.7392 98.5624ZM92.7392 93.3663L62.8022 76.0821C65.0391 73.397 68.0983 71.3522 71.7307 70.3789C81.0883 67.8715 90.7067 73.4247 93.2141 82.7823C94.1874 86.4147 93.9461 90.0864 92.7392 93.3663ZM99.0096 81.2294C102.375 93.7878 94.9219 106.696 82.3635 110.061C69.8052 113.426 56.8967 105.974 53.5317 93.4151C50.1667 80.8568 57.6194 67.9483 70.1778 64.5833C82.7362 61.2183 95.6446 68.671 99.0096 81.2294ZM106.557 43.3224L28.0418 64.3606C23.2406 65.647 20.3913 70.5821 21.6778 75.3833L34.9614 124.958C36.2479 129.759 41.1829 132.609 45.9841 131.322L124.5 110.284C129.301 108.998 132.15 104.063 130.863 99.2613L117.58 49.6864C116.293 44.8852 111.358 42.0359 106.557 43.3224Z" fill="#4A4A4A"/>
</svg>
